<?xml version="1.0" encoding="UTF-8"?><!DOCTYPE svg PUBLIC "-//W3C//DTD SVG 1.1//EN" "http://www.w3.org/Graphics/SVG/1.1/DTD/svg11.dtd"><svg xmlns="http://www.w3.org/2000/svg"><symbol id="ico-drop-arrow" viewBox="0 0 257.6 451.8">
    <path d="M248.3 248.3L54 442.6c-12.4 12.4-32.4 12.4-44.8 0-12.4-12.4-12.4-32.4 0-44.7L181.1 226 9.3 54C-3.1 41.7-3.1 21.6 9.3 9.3 21.6-3.1 41.7-3.1 54 9.3l194.3 194.3c6.2 6.2 9.3 14.3 9.3 22.4 0 8-3.1 16.1-9.3 22.3z"/>
</symbol><symbol id="ico-user" viewBox="0 0 490 612">
    <path d="M245 326c90.6 0 123.1-90.7 131.7-165.2C387.2 69.1 343.8 0 245 0c-98.8 0-142.2 69.1-131.7 160.8C121.9 235.3 154.5 326 245 326z"/>
    <path d="M490 541.9c-1-28.9-4.4-57.9-9.4-86.4-6.1-34.5-13.9-85-44-107.5-17.4-13-39.9-17.2-59.9-25.1-9.7-3.8-18.4-7.6-26.5-11.9-27.5 30.2-63.4 46-105.2 46-41.8 0-77.7-15.8-105.2-46-8.2 4.3-16.8 8.1-26.5 11.9-19.9 7.8-42.5 12.1-59.9 25.1-30.1 22.5-37.9 73-44 107.5C4.4 484 1 513 0 541.9c-.8 22.4 10.3 25.5 29 32.3 23.5 8.5 47.7 14.7 72 19.9 47.1 9.9 95.6 17.6 143.9 17.9 48.3-.3 96.8-8 143.9-17.9 24.4-5.1 48.6-11.4 72-19.9 18.9-6.8 30-9.9 29.2-32.3z"/>
</symbol>
<symbol id="ico-comments" viewBox="0 0 18 16">
<path d="M5.73858 6.43401C6.09678 6.43401 6.41358 6.58521 6.64758 6.80481C6.88158 7.03881 7.03278 7.36821 7.03278 7.71381C7.03278 8.07201 6.89598 8.38881 6.64758 8.62281C6.41358 8.85681 6.09678 9.00801 5.73858 9.00801C5.38038 9.00801 5.06358 8.85681 4.82958 8.62281C4.59558 8.38881 4.45878 8.07201 4.45878 7.71381C4.45878 7.35561 4.59558 7.03881 4.82958 6.80481C5.05098 6.58701 5.38218 6.43401 5.73858 6.43401ZM9.00018 0.049408C11.4086 0.049408 13.5956 0.902608 15.1922 2.26521C16.8158 3.65481 17.8202 5.58081 17.8202 7.72821C17.8202 9.86121 16.8158 11.8016 15.1922 13.1912C13.61 14.5664 11.4086 15.407 9.00018 15.407C8.27118 15.407 7.55478 15.3242 6.88158 15.1874C6.30378 15.0632 5.74038 14.8976 5.20218 14.6654L3.08358 15.8066C2.87658 15.9164 2.65698 15.9722 2.43738 15.9434C2.21778 15.929 2.01078 15.8462 1.81818 15.7094C1.63998 15.5582 1.50138 15.38 1.41858 15.1586C1.33578 14.9516 1.32138 14.732 1.37718 14.498L1.88658 12.2552C1.37718 11.663 0.964976 10.9898 0.689576 10.2878C0.358376 9.48861 0.180176 8.62281 0.180176 7.72821C0.180176 5.58081 1.18458 3.65481 2.80818 2.26521C4.39038 0.890008 6.57918 0.049408 9.00018 0.049408ZM14.312 3.28401C12.9494 2.12841 11.0774 1.39941 9.00018 1.39941C6.90858 1.39941 5.03658 2.12841 3.67578 3.28401C2.35458 4.42521 1.52838 6.00741 1.52838 7.72821C1.52838 8.44461 1.66518 9.13221 1.92798 9.77841C2.20338 10.439 2.58858 11.0582 3.08358 11.5802C3.24918 11.7458 3.34458 11.9798 3.27618 12.2264L2.78118 14.4278L4.85838 13.2992C5.03658 13.202 5.25798 13.1894 5.45058 13.2848C5.97258 13.5332 6.55218 13.7258 7.15698 13.8482C7.73478 13.9724 8.35398 14.0408 8.98758 14.0408C11.0648 14.0408 12.9368 13.3244 14.2994 12.1562C15.635 11.015 16.4468 9.44541 16.4468 7.72641C16.445 6.00741 15.6332 4.42521 14.312 3.28401ZM9.00018 6.43401C9.35838 6.43401 9.67518 6.58521 9.90917 6.80481C10.1432 7.03881 10.28 7.36821 10.28 7.71381C10.28 8.07201 10.1432 8.38881 9.90917 8.62281C9.67518 8.85681 9.35838 9.00801 9.00018 9.00801C8.64198 9.00801 8.31258 8.85681 8.09118 8.62281C7.85718 8.38881 7.70598 8.07201 7.70598 7.71381C7.70598 7.35561 7.85718 7.03881 8.09118 6.80481C8.31258 6.58701 8.64198 6.43401 9.00018 6.43401ZM12.2474 6.43401C12.6056 6.43401 12.9224 6.58521 13.1564 6.80481C13.3904 7.03881 13.5272 7.36821 13.5272 7.71381C13.5272 8.07201 13.3904 8.38881 13.1564 8.62281C12.9224 8.85681 12.593 9.00801 12.2474 9.00801C11.8892 9.00801 11.5724 8.85681 11.3384 8.62281C11.1044 8.38881 10.9676 8.07201 10.9676 7.71381C10.9676 7.35561 11.1044 7.03881 11.3384 6.80481C11.5724 6.58701 11.8892 6.43401 12.2474 6.43401Z" fill="#B6B6B6"/>
</svg>