<?xml version="1.0" encoding="UTF-8"?>
<svg width="24px" height="24px" viewBox="0 0 24 24" version="1.1" xmlns="http://www.w3.org/2000/svg" xmlns:xlink="http://www.w3.org/1999/xlink">
    <!-- Generator: Sketch 52.6 (67491) - http://www.bohemiancoding.com/sketch -->
    <title>icon red</title>
    <desc>Created with Sketch.</desc>
    <g id="Page-1" stroke="none" stroke-width="1" fill="none" fill-rule="evenodd">
        <g id="login_icon" transform="translate(-100.000000, -4636.000000)" fill="#CC2222" fill-rule="nonzero">
            <g id="icon-red" transform="translate(104.000000, 4639.000000)">
                <path d="M5.97451119,16.808099 L2.56320854,16.808099 C1.22188504,16.808099 0.125,15.7331283 0.125,14.4010459 L0.125,0.525 C0.125,0.3040861 0.3040861,0.125 0.525,0.125 L15.475,0.125 C15.6959139,0.125 15.875,0.3040861 15.875,0.525 L15.875,14.4010459 C15.875,15.7331283 14.778115,16.808099 13.4367915,16.808099 L11.898969,16.808099 C10.4637704,16.808099 9.61088864,17.1941962 8.42476233,18.398975 C7.95792823,18.8468588 7.57841761,19.2346191 7.28623047,19.5622559 C6.99404332,19.8898926 6.74493037,20.1840658 6.5388916,20.4447754 C6.393573,20.6096436 6.30988159,20.6460693 6.20474854,20.6460693 C6.09961548,20.6460693 5.97451119,20.6096436 5.97451119,20.4447754 L5.97451119,16.808099 Z M2.675,2.675 L2.675,13.6750626 C2.675,13.9890901 2.94065604,14.2520702 3.27332007,14.2520702 L7.7604934,14.2520702 L7.7604934,15.6503134 C8.8791939,14.6472243 9.92471539,14.2520702 11.3897159,14.2520702 L12.7266799,14.2520702 C13.059344,14.2520702 13.325,13.9890901 13.325,13.6750626 L13.325,2.675 L2.675,2.675 Z" id="Shape"></path>
            </g>
        </g>
    </g>
</svg>