<?xml version="1.0" encoding="UTF-8"?>
<svg fill="none" version="1.1" viewBox="0 0 1e3 364" xmlns="http://www.w3.org/2000/svg">
 <g fill="#1E2856">
  <path d="m12.87 5.5779h108.7c18.116 0 31.28 4.1053 39.469 12.294 8.187 8.1883 12.293 21.352 12.293 39.469v25.881c0 18.117-4.106 31.28-12.293 39.469-8.189 8.188-21.353 12.293-39.469 12.293h-62.116v51.763h-46.586v-181.17zm113.88 51.763c0-10.352-5.176-15.529-15.529-15.529h-51.762v56.939h51.762c10.353 0 15.529-5.1763 15.529-15.529v-25.881z"/>
  <path d="m186.27 149.22c42.102 2.588 70.572 3.882 85.409 3.882 3.971 0 7.117-1.16 9.438-3.503 2.32-2.342 3.502-5.466 3.502-9.437v-24.588h-68.853v-36.233h68.853v-21.999c0-10.352-5.176-15.529-15.528-15.529h-80.232v-36.234h90.584c18.117 0 31.281 4.1053 39.469 12.294 8.188 8.1883 12.294 21.352 12.294 39.469v82.82c0 16.912-3.972 29.339-11.915 37.26-7.942 7.943-20.37 11.914-37.26 11.914-25.881 0-57.809-1.718-95.761-5.176v-34.94z"/>
  <path d="m400.58 189.34c-8.635 0-17.515-0.87-26.662-2.588v-34.94h23.293c4.998 0 8.456-1.985 10.352-5.957 0.87-1.718 1.294-3.57 1.294-5.555 0-1.986-0.424-3.749-1.294-5.311l-71.173-129.41h51.762l46.587 91.879 38.822-91.879h51.762l-65.997 142.35c-6.046 13.632-13.298 23.806-21.731 30.544-9.327 7.252-21.665 10.866-37.015 10.866z"/>
  <path d="m527.91 147.92h46.586v38.822h-46.586v-38.822z"/>
  <path d="m597.79 5.5779h108.7c18.117 0 31.281 4.1053 39.469 12.294 8.188 8.1883 12.294 21.352 12.294 39.469v25.881c0 18.117-4.106 31.28-12.294 39.469-8.188 8.188-21.352 12.293-39.469 12.293h-62.115v51.763h-46.586v-181.17zm113.88 51.763c0-10.352-5.176-15.529-15.528-15.529h-51.763v56.939h51.763c10.352 0 15.528-5.1763 15.528-15.529v-25.881z"/>
  <path d="m986.01 122.04c0 18.117-4.105 31.281-12.294 39.469-8.188 8.188-21.352 12.294-39.469 12.294h-31.057v18.117h-46.587v-18.117h-31.057c-18.117 0-31.281-4.106-39.469-12.294s-12.294-21.352-12.294-39.469v-51.762c0-18.117 4.106-31.281 12.294-39.469s21.352-12.294 39.469-12.294h31.057v-18.117h46.587v18.117h31.057c18.117 0 31.281 4.1053 39.469 12.294 8.189 8.1883 12.294 21.352 12.294 39.469v51.762zm-165.64 0c0 10.353 5.176 15.529 15.528 15.529h23.294v-82.82h-23.294c-10.352 0-15.528 5.1763-15.528 15.529v51.762zm119.05-51.762c0-10.352-5.177-15.529-15.529-15.529h-23.293v82.82h23.293c10.352 0 15.529-5.176 15.529-15.529v-51.762z"/>
 </g>
 <path d="m0.24121 224.23h999.55" stroke="#1E2856" stroke-miterlimit="10" stroke-width="15"/>
 <g fill="#1E2856">
  <path d="m13.338 262.16h16.868c2.8112 0 4.8416 0.647 6.1133 1.896 1.2718 1.272 1.9188 3.325 1.9188 6.136v4.016c0 2.811-0.647 4.864-1.9188 6.136-1.2717 1.271-3.3021 1.918-6.1133 1.918h-9.6386v8.033h-7.2289v-28.135zm17.671 8.032c0-1.607-0.8032-2.41-2.4097-2.41h-8.0321v8.836h8.0321c1.6065 0 2.4097-0.804 2.4097-2.41v-4.016z"/>
  <path d="m67.153 282.64c0 2.812-0.647 4.864-1.8965 6.136-1.2717 1.272-3.3021 1.919-6.1356 1.919h-10.04c-2.8112 0-4.8416-0.647-6.1133-1.919-1.2718-1.272-1.8965-3.324-1.8965-6.136v-12.851c0-2.811 0.6247-4.842 1.8965-6.136 1.2717-1.271 3.3021-1.896 6.1133-1.896h10.04c2.8112 0 4.8639 0.647 6.1356 1.896 1.2718 1.272 1.8965 3.325 1.8965 6.136v12.851zm-7.2289-12.851c0-1.606-0.8032-2.41-2.4097-2.41h-6.8273c-1.6064 0-2.4096 0.804-2.4096 2.41v12.851c0 1.607 0.8032 2.41 2.4096 2.41h6.8273c1.6065 0 2.4097-0.803 2.4097-2.41v-12.851z"/>
  <path d="m92.855 289.87c-5.9795 0.535-10.933 0.803-14.859 0.803-2.6328 0-4.5516-0.625-5.7787-1.852s-1.8519-3.168-1.8519-5.779v-12.851c0-2.811 0.6248-4.842 1.8965-6.136 1.2718-1.271 3.3021-1.896 6.1134-1.896h14.458v5.622h-12.851c-1.6064 0-2.4097 0.803-2.4097 2.41v12.851c0 0.625 0.1785 1.116 0.5355 1.473s0.8255 0.535 1.3833 0.535 1.1825 0 1.8519-0.022c0.6693-0.022 1.361-0.022 2.0973-0.067 0.7139-0.022 1.4502-0.045 2.1865-0.089 0.7363-0.022 1.6956-0.089 2.8558-0.156 1.1602-0.09 2.6105-0.179 4.3508-0.29v5.444h0.0223z"/>
  <path d="m117.76 289.87c-5.98 0.535-10.933 0.803-14.86 0.803-2.633 0-4.5514-0.625-5.7785-1.852s-1.8519-3.168-1.8519-5.779v-12.851c0-2.811 0.6248-4.842 1.8965-6.136 1.2718-1.271 3.3019-1.896 6.1129-1.896h14.459v5.622h-12.852c-1.607 0-2.41 0.803-2.41 2.41v12.851c0 0.625 0.179 1.116 0.536 1.473s0.825 0.535 1.383 0.535 1.183 0 1.852-0.022 1.361-0.022 2.097-0.067c0.714-0.022 1.45-0.045 2.187-0.089 0.736-0.022 1.695-0.089 2.856-0.156 1.16-0.09 2.61-0.179 4.351-0.29v5.444h0.022z"/>
  <path d="m145.46 290.27h-7.229v-17.269l-9.639 17.269h-7.63v-28.112h7.229v17.269l9.638-17.269h7.631v28.112z"/>
  <path d="m167.55 290.27v-17.269l-9.638 17.269h-7.631v-28.112h7.229v17.269l9.639-17.269h7.63v28.112h-7.229zm-7.229-30.12c-3.48 0-5.221-1.741-5.221-5.221v-1.205h5.221v1.004c0 0.402 0.134 0.736 0.402 1.004s0.602 0.402 1.004 0.402h1.205c0.401 0 0.736-0.134 1.004-0.402s0.401-0.602 0.401-1.004v-1.004h5.221v1.205c0 3.48-1.74 5.221-5.221 5.221h-4.016z"/>
  <path d="m201.29 289.87c-5.98 0.535-10.933 0.803-14.86 0.803-2.632 0-4.551-0.625-5.778-1.852s-1.852-3.168-1.852-5.779v-12.851c0-2.811 0.625-4.842 1.896-6.136 1.272-1.271 3.302-1.896 6.114-1.896h14.457v5.622h-12.851c-1.606 0-2.41 0.803-2.41 2.41v12.851c0 0.625 0.179 1.116 0.536 1.473s0.825 0.535 1.383 0.535 1.183 0 1.852-0.022 1.361-0.022 2.097-0.067c0.714-0.022 1.451-0.045 2.187-0.089 0.736-0.022 1.696-0.089 2.856-0.156 1.16-0.09 2.61-0.179 4.35-0.29v5.444h0.023z"/>
  <path d="m224.98 261.76c0.669 0 1.874 0.134 3.614 0.402v5.421h-1.606c-0.402 0-0.759 0.134-1.093 0.38-0.313 0.245-0.558 0.535-0.714 0.825l-3.816 7.229 7.832 14.257h-7.631l-6.225-11.446h-3.614v11.446h-7.229v-28.112h7.229v11.044h3.614l4.016-7.631c0.58-1.115 1.317-2.052 2.187-2.744 0.87-0.714 2.008-1.071 3.436-1.071z"/>
  <path d="m256.11 290.27h-7.229v-17.269l-9.638 17.269h-7.631v-28.112h7.229v17.269l9.639-17.269h7.63v28.112z"/>
  <path d="m278.2 290.27v-17.269l-9.639 17.269h-7.63v-28.112h7.229v17.269l9.638-17.269h7.631v28.112h-7.229zm-7.229-30.12c-3.481 0-5.221-1.741-5.221-5.221v-1.205h5.221v1.004c0 0.402 0.134 0.736 0.402 1.004 0.267 0.268 0.602 0.402 1.004 0.402h1.204c0.402 0 0.737-0.134 1.004-0.402 0.268-0.268 0.402-0.602 0.402-1.004v-1.004h5.221v1.205c0 3.48-1.74 5.221-5.221 5.221h-4.016z"/>
  <path d="m300.69 284.45c6.537 0.402 10.954 0.602 13.253 0.602 0.624 0 1.115-0.178 1.472-0.535s0.536-0.848 0.536-1.473v-3.815h-10.688v-5.622h10.688v-3.414c0-1.607-0.804-2.41-2.41-2.41h-12.45v-5.622h14.056c2.812 0 4.842 0.647 6.136 1.896 1.272 1.272 1.919 3.325 1.919 6.136v12.851c0 2.633-0.625 4.552-1.852 5.779s-3.168 1.852-5.779 1.852c-4.016 0-8.969-0.268-14.859-0.803v-5.422h-0.022z"/>
  <path d="m347.68 261.76c0.67 0 1.874 0.134 3.615 0.402v5.421h-1.607c-0.401 0-0.758 0.134-1.093 0.38-0.312 0.245-0.558 0.535-0.714 0.825l-3.815 7.229 7.831 14.257h-7.63l-6.225-11.446h-3.615v11.446h-7.229v-28.112h7.229v11.044h3.615l4.016-7.631c0.58-1.115 1.316-2.052 2.186-2.744 0.87-0.714 2.008-1.071 3.436-1.071z"/>
  <path d="m379.58 282.64c0 2.812-0.647 4.864-1.897 6.136-1.271 1.272-3.324 1.919-6.135 1.919h-10.04c-2.812 0-4.864-0.647-6.136-1.919s-1.919-3.324-1.919-6.136v-12.851c0-2.811 0.647-4.842 1.919-6.136 1.272-1.271 3.302-1.896 6.136-1.896h10.04c2.811 0 4.841 0.647 6.135 1.896 1.272 1.272 1.897 3.325 1.897 6.136v12.851zm-7.229-12.851c0-1.606-0.803-2.41-2.41-2.41h-6.827c-1.606 0-2.41 0.804-2.41 2.41v12.851c0 1.607 0.804 2.41 2.41 2.41h6.827c1.607 0 2.41-0.803 2.41-2.41v-12.851z"/>
  <path d="m408.09 290.27h-7.229v-11.446h-10.04v11.446h-7.229v-28.112h7.229v11.044h10.04v-11.044h7.229v28.112z"/>
  <path d="m438.22 282.64c0 2.812-0.647 4.864-1.897 6.136-1.272 1.272-3.324 1.919-6.136 1.919h-10.04c-2.811 0-4.864-0.647-6.135-1.919-1.272-1.272-1.919-3.324-1.919-6.136v-12.851c0-2.811 0.647-4.842 1.919-6.136 1.271-1.271 3.302-1.896 6.135-1.896h10.04c2.812 0 4.842 0.647 6.136 1.896 1.272 1.272 1.897 3.325 1.897 6.136v12.851zm-7.229-12.851c0-1.606-0.804-2.41-2.41-2.41h-6.827c-1.607 0-2.41 0.804-2.41 2.41v12.851c0 1.607 0.803 2.41 2.41 2.41h6.827c1.606 0 2.41-0.803 2.41-2.41v-12.851z"/>
  <path d="m466.33 274.61-5.623 10.04h-5.622l-5.623-10.04v15.662h-7.229v-28.112h7.631l8.032 14.859 8.032-14.859h7.631v28.112h-7.229v-15.662z"/>
  <path d="m502.87 290.27h-7.228v-17.269l-9.639 17.269h-7.631v-28.112h7.229v17.269l9.639-17.269h7.63v28.112z"/>
  <path d="m523.96 281.04c-3.213 0.268-6.247 0.402-9.103 0.402s-4.886-0.625-6.136-1.852c-1.227-1.227-1.852-3.168-1.852-5.779v-11.646h7.229v11.646c0 0.625 0.179 1.116 0.536 1.473s0.847 0.535 1.472 0.535c2.187 0 4.797-0.133 7.831-0.401v-13.253h7.229v28.112h-7.229v-9.237h0.023z"/>
  <path d="m558.3 290.27h-22.289v-28.112h22.289v5.622h-15.06v5.422h11.848v5.622h-11.848v5.824h15.06v5.622z"/>
  <path d="m583.2 289.87c-5.979 0.535-10.933 0.803-14.859 0.803-2.633 0-4.552-0.625-5.779-1.852s-1.852-3.168-1.852-5.779v-12.851c0-2.811 0.647-4.842 1.919-6.136 1.272-1.271 3.302-1.896 6.135-1.896h14.458v5.622h-12.851c-1.607 0-2.41 0.803-2.41 2.41v12.851c0 0.625 0.179 1.116 0.536 1.473s0.825 0.535 1.383 0.535 1.183 0 1.852-0.022 1.361-0.022 2.097-0.067c0.714-0.022 1.45-0.045 2.187-0.089 0.736-0.022 1.695-0.089 2.856-0.156 1.16-0.09 2.61-0.179 4.35-0.29v5.444h-0.022z"/>
  <path d="m606.89 261.76c0.669 0 1.874 0.134 3.614 0.402v5.421h-1.606c-0.402 0-0.759 0.134-1.094 0.38-0.312 0.245-0.557 0.535-0.714 0.825l-3.815 7.229 7.832 14.257h-7.631l-6.225-11.446h-3.614v11.446h-7.229v-28.112h7.229v11.044h3.614l4.016-7.631c0.58-1.115 1.316-2.052 2.187-2.744 0.87-0.714 2.03-1.071 3.436-1.071z"/>
  <path d="m638.01 290.27h-7.229v-17.269l-9.638 17.269h-7.631v-28.112h7.229v17.269l9.639-17.269h7.63v28.112z"/>
  <path d="m660.1 290.27v-17.269l-9.639 17.269h-7.631v-28.112h7.229v17.269l9.639-17.269h7.63v28.112h-7.228zm-7.229-30.12c-3.481 0-5.221-1.741-5.221-5.221v-1.205h5.221v1.004c0 0.402 0.134 0.736 0.401 1.004 0.268 0.268 0.603 0.402 1.004 0.402h1.205c0.402 0 0.736-0.134 1.004-0.402s0.402-0.602 0.402-1.004v-1.004h5.221v1.205c0 3.48-1.741 5.221-5.221 5.221h-4.016z"/>
  <path d="m690.96 290.67c-1.339 0-2.722-0.134-4.128-0.402v-5.421h3.615c0.78 0 1.316-0.313 1.606-0.915 0.134-0.268 0.201-0.558 0.201-0.87 0-0.313-0.067-0.58-0.201-0.826l-11.044-20.08h8.032l7.229 14.257 6.024-14.257h8.032l-10.241 22.088c-0.937 2.12-2.053 3.704-3.369 4.73-1.472 1.138-3.391 1.696-5.756 1.696z"/>
  <path d="m736.41 290.27h-7.229v-11.446h-10.04v11.446h-7.229v-28.112h7.229v11.044h10.04v-11.044h7.229v28.112z"/>
  <path d="m765.72 290.27h-7.229v-17.269l-9.638 17.269h-7.631v-28.112h7.229v17.269l9.639-17.269h7.63v28.112z"/>
  <path d="m770.54 262.16h16.064c2.633 0 4.552 0.602 5.779 1.785 1.227 1.182 1.852 3.012 1.852 5.444 0 1.606-0.357 2.9-1.049 3.904s-1.562 1.696-2.566 2.097c2.164 0.581 3.637 2.031 4.418 4.329 0.268 0.825 0.402 1.785 0.402 2.9 0 2.633-0.625 4.552-1.852 5.779s-3.169 1.852-5.779 1.852h-17.269v-28.09zm16.466 8.032c0-1.607-0.803-2.41-2.41-2.41h-6.827v5.623h6.827c1.607 0 2.41-0.803 2.41-2.41v-0.803zm1.205 11.245c0-1.607-0.804-2.41-2.41-2.41h-8.032v5.623h8.032c1.606 0 2.41-0.803 2.41-2.41v-0.803z"/>
  <path d="m821.35 290.27h-22.289v-28.112h22.289v5.622h-15.06v5.422h11.847v5.622h-11.847v5.824h15.06v5.622z"/>
  <path d="m824.56 262.16h16.867c2.811 0 4.842 0.647 6.136 1.896 1.271 1.272 1.918 3.325 1.918 6.136v4.016c0 2.811-0.647 4.864-1.918 6.136-1.272 1.271-3.302 1.918-6.136 1.918h-9.638v8.033h-7.229v-28.135zm17.67 8.032c0-1.607-0.803-2.41-2.409-2.41h-8.032v8.836h8.032c1.606 0 2.409-0.804 2.409-2.41v-4.016z"/>
  <path d="m874.76 289.87c-5.98 0.535-10.933 0.803-14.86 0.803-2.632 0-4.551-0.625-5.778-1.852s-1.852-3.168-1.852-5.779v-12.851c0-2.811 0.647-4.842 1.919-6.136 1.272-1.271 3.302-1.896 6.135-1.896h14.458v5.622h-12.851c-1.607 0-2.41 0.803-2.41 2.41v12.851c0 0.625 0.179 1.116 0.536 1.473s0.825 0.535 1.383 0.535 1.183 0 1.852-0.022 1.361-0.022 2.097-0.067c0.714-0.022 1.45-0.045 2.187-0.089 0.736-0.022 1.695-0.089 2.855-0.156 1.161-0.09 2.611-0.179 4.351-0.29v5.444h-0.022z"/>
  <path d="m902.47 290.27h-7.229v-17.269l-9.638 17.269h-7.631v-28.112h7.229v17.269l9.639-17.269h7.63v28.112z"/>
  <path d="m920.95 290.27h-7.229v-22.49h-8.434v-5.622h24.097v5.622h-8.434v22.49z"/>
  <path d="m954.48 290.27h-22.289v-28.112h22.289v5.622h-15.06v5.422h11.847v5.622h-11.847v5.824h15.06v5.622z"/>
  <path d="m971.34 290.27h-7.229v-22.49h-8.433v-5.622h24.096v5.622h-8.434v22.49z"/>
  <path d="m60.215 361.44h-14.056v-33.579l-18.742 33.579h-14.837v-54.663h14.056v33.578l18.742-33.578h14.837v54.663z"/>
  <path d="m116.44 330.99-10.933 19.523h-10.932l-10.933-19.523v30.456h-14.056v-54.663h14.837l15.618 28.893 15.618-28.893h14.837v54.663h-14.056v-30.456z"/>
  <path d="m183.2 361.44h-43.329v-54.663h43.329v10.932h-29.273v10.553h23.048v10.933h-23.048v11.334h29.273v10.911z"/>
  <path d="m237.08 361.44h-14.056v-22.267h-19.522v22.267h-14.057v-54.663h14.057v21.463h19.522v-21.463h14.056v54.663z"/>
  <path d="m294.08 361.44h-14.056v-33.579l-18.742 33.579h-14.837v-54.663h14.056v33.578l18.742-33.578h14.837v54.663z"/>
  <path d="m340.93 361.44h-14.056v-54.663h42.57v10.932h-28.514v43.731z"/>
  <path d="m372.58 349.73h14.056v11.714h-14.056v-11.714z"/>
  <path d="m393.64 306.78h31.236c5.109 0 8.857 1.16 11.245 3.48 2.387 2.321 3.592 5.846 3.592 10.576 0 3.123-0.669 5.667-2.03 7.608s-3.012 3.324-4.998 4.105c4.217 1.138 7.073 3.949 8.59 8.434 0.513 1.606 0.781 3.481 0.781 5.623 0 5.109-1.205 8.857-3.593 11.245-2.387 2.387-6.135 3.592-11.244 3.592h-33.579v-54.663zm32.039 15.618c0-3.124-1.562-4.686-4.685-4.686h-13.276v10.933h13.276c3.123 0 4.685-1.562 4.685-4.686v-1.561zm2.343 21.865c0-3.124-1.562-4.686-4.686-4.686h-15.618v10.933h15.618c3.124 0 4.686-1.562 4.686-4.685v-1.562z"/>
  <path d="m446.74 349.73h14.057v11.714h-14.057v-11.714z"/>
  <path d="m538.88 361.44h-14.056v-43.731h-19.523v43.731h-14.056v-54.663h47.635v54.663z"/>
  <path d="m561.06 358.99c-2.142 2.165-4.753 3.235-7.899 3.235-3.123 0-6.068-0.267-8.835-0.78v-10.554h3.525c0.982 0 1.808-0.334 2.455-1.026 0.647-0.669 1.004-1.517 1.048-2.499l2.343-40.607h43.329v54.686h-14.056v-43.731h-16.399l-1.964 32.419c-0.201 3.726-1.405 6.693-3.547 8.857z"/>
  <path d="m649.77 361.44h-43.329v-54.663h43.351v10.932h-29.295v10.553h23.025v10.933h-23.025v11.334h29.273v10.911z"/>
  <path d="m687.66 306.78h15.618l-17.581 27.331 17.96 27.332h-15.618l-10.932-17.18-10.933 17.18h-15.618l17.961-27.332-17.581-27.331h15.528l10.621 17.179 10.575-17.179z"/>
  <path d="m717.33 361.44h-15.216l20.683-54.663h15.618l20.705 54.663h-15.239l-3.525-9.773h-19.523l-3.503 9.773zm7.028-19.902h12.495l-6.247-18.363-6.248 18.363z"/>
  <path d="m810.64 361.44h-14.056v-22.267h-19.523v22.267h-14.056v-54.663h14.056v21.463h19.523v-21.463h14.056v54.663z"/>
  <path d="m869.21 346.61c0 5.467-1.227 9.438-3.704 11.915-2.476 2.476-6.448 3.703-11.914 3.703h-19.523c-5.466 0-9.437-1.227-11.914-3.703-2.477-2.477-3.704-6.448-3.704-11.915v-24.988c0-5.467 1.227-9.438 3.704-11.915 2.477-2.476 6.448-3.703 11.914-3.703h19.523c5.466 0 9.438 1.227 11.914 3.703 2.477 2.477 3.704 6.448 3.704 11.915v24.988zm-14.056-24.988c0-3.124-1.562-4.686-4.686-4.686h-13.275c-3.124 0-4.686 1.562-4.686 4.686v24.988c0 3.124 1.562 4.686 4.686 4.686h13.275c3.124 0 4.686-1.562 4.686-4.686v-24.988z"/>
  <path d="m877.02 306.78h31.236c5.11 0 8.858 1.16 11.245 3.48 2.388 2.321 3.592 5.846 3.592 10.576 0 3.123-0.669 5.667-2.03 7.608s-3.012 3.324-4.998 4.105c4.217 1.138 7.073 3.949 8.59 8.434 0.513 1.606 0.781 3.481 0.781 5.623 0 5.109-1.205 8.857-3.592 11.245-2.387 2.387-6.136 3.592-11.245 3.592h-33.579v-54.663zm32.017 15.618c0-3.124-1.562-4.686-4.685-4.686h-13.276v10.933h13.276c3.123 0 4.685-1.562 4.685-4.686v-1.561zm2.343 21.865c0-3.124-1.562-4.686-4.686-4.686h-15.618v10.933h15.618c3.124 0 4.686-1.562 4.686-4.685v-1.562z"/>
  <path d="m942.23 361.44h-15.217l20.683-54.663h15.618l20.705 54.663h-15.239l-3.525-9.773h-19.523l-3.502 9.773zm7.028-19.902h12.494l-6.247-18.363-6.247 18.363z"/>
 </g>
</svg>
