<svg width="90" height="60" viewBox="0 0 90 60" fill="none" xmlns="http://www.w3.org/2000/svg">
<rect width="90" height="60" fill="white"/>
<path d="M78 30.5C78 41.2 69.3 50 58.5 50C47.8 50 39 41.2 39 30.5C39 19.8 47.7 11 58.4 11C69.3 11 78 19.8 78 30.5Z" fill="#F9B50B"/>
<path d="M51.9 30.6C51.9 29.2 51.7 27.8 51.5 26.5H39.5C39.6 25.8 39.8 25.2 40 24.4H50.7C50.5 23.7 50.2 23 49.9 22.3H40.8C41.1 21.6 41.5 21 41.9 20.2H48.8C48.4 19.5 47.9 18.8 47.3 18.1H43.5C44.1 17.4 44.7 16.8 45.5 16.1C42.1 12.9 37.5 11 32.4 11C21.8 11.3 13 19.8 13 30.5C13 41.2 21.7 50 32.5 50C37.6 50 42.1 48 45.6 44.9C46.3 44.3 46.9 43.6 47.6 42.8H43.6C43.1 42.2 42.6 41.5 42.2 40.8H49C49.4 40.2 49.8 39.5 50.1 38.7H41C40.7 38.1 40.4 37.4 40.2 36.6H50.9C51.5 34.8 51.9 32.8 51.9 30.6Z" fill="#C8191C"/>
<path d="M39.4 35.5L39.7 33.7C39.6 33.7 39.4 33.8 39.2 33.8C38.5 33.8 38.4 33.4 38.5 33.2L39.1 29.6H40.2L40.5 27.6H39.5L39.7 26.4H37.6C37.6 26.4 36.4 33.2 36.4 34C36.4 35.2 37.1 35.8 38.1 35.8C38.7 35.8 39.2 35.6 39.4 35.5Z" fill="white"/>
<path d="M40.1 32.2C40.1 35.1 42.1 35.8 43.7 35.8C45.2 35.8 45.9 35.5 45.9 35.5L46.3 33.5C46.3 33.5 45.2 34 44.1 34C41.8 34 42.2 32.3 42.2 32.3H46.4C46.4 32.3 46.7 31 46.7 30.4C46.7 29.1 46 27.4 43.7 27.4C41.7 27.3 40.1 29.6 40.1 32.2ZM43.7 29.2C44.8 29.2 44.6 30.5 44.6 30.6H42.3C42.4 30.5 42.6 29.2 43.7 29.2Z" fill="white"/>
<path d="M56.8 35.5L57.2 33.2C57.2 33.2 56.2 33.7 55.4 33.7C54 33.7 53.3 32.6 53.3 31.3C53.3 28.8 54.5 27.5 56 27.5C57 27.5 57.9 28.1 57.9 28.1L58.2 25.9C58.2 25.9 57 25.4 55.8 25.4C53.4 25.4 51.1 27.5 51.1 31.4C51.1 34 52.3 35.7 54.8 35.7C55.7 35.8 56.8 35.5 56.8 35.5Z" fill="white"/>
<path d="M28.1 27.3C26.7 27.3 25.6 27.7 25.6 27.7L25.3 29.5C25.3 29.5 26.2 29.1 27.6 29.1C28.3 29.1 28.9 29.2 28.9 29.8C28.9 30.2 28.8 30.3 28.8 30.3H27.9C26.1 30.3 24.2 31 24.2 33.4C24.2 35.3 25.4 35.7 26.2 35.7C27.6 35.7 28.3 34.8 28.4 34.8L28.3 35.6H30L30.8 29.9C30.8 27.4 28.8 27.3 28.1 27.3ZM28.5 31.9C28.5 32.2 28.3 33.9 27.1 33.9C26.5 33.9 26.3 33.4 26.3 33.1C26.3 32.6 26.6 31.9 28.2 31.9C28.4 31.9 28.5 31.9 28.5 31.9Z" fill="white"/>
<path d="M32.8 35.7C33.3 35.7 35.9 35.8 35.9 33C35.9 30.4 33.4 30.9 33.4 29.9C33.4 29.4 33.8 29.2 34.5 29.2C34.8 29.2 35.9 29.3 35.9 29.3L36.2 27.4C36.2 27.4 35.5 27.2 34.2 27.2C32.7 27.2 31.1 27.8 31.1 29.9C31.1 32.3 33.7 32.1 33.7 33C33.7 33.6 33 33.7 32.5 33.7C31.6 33.7 30.6 33.4 30.6 33.4L30.3 35.3C30.5 35.5 31.1 35.7 32.8 35.7Z" fill="white"/>
<path d="M74 25.7L73.6 28.5C73.6 28.5 72.8 27.5 71.6 27.5C69.7 27.5 68.1 29.8 68.1 32.5C68.1 34.2 68.9 35.9 70.7 35.9C71.9 35.9 72.7 35.1 72.7 35.1L72.6 35.8H74.7L76.2 25.9L74 25.7ZM73 31.1C73 32.2 72.5 33.7 71.3 33.7C70.6 33.7 70.2 33.1 70.2 32C70.2 30.3 70.9 29.3 71.9 29.3C72.6 29.4 73 29.9 73 31.1Z" fill="white"/>
<path d="M16.8 35.6L18 28.2L18.2 35.6H19.6L22.3 28.2L21.2 35.6H23.4L25.1 25.7H21.7L19.6 31.8L19.5 25.7H16.5L14.8 35.6H16.8Z" fill="white"/>
<path d="M48.8 35.6C49.4 32.2 49.5 29.4 51 29.9C51.2 28.6 51.5 28 51.7 27.5H51.3C50.4 27.5 49.6 28.7 49.6 28.7L49.8 27.6H47.8L46.5 35.6H48.8Z" fill="white"/>
<path d="M61.6 27.3C60.2 27.3 59.1 27.7 59.1 27.7L58.8 29.5C58.8 29.5 59.7 29.1 61.1 29.1C61.8 29.1 62.4 29.2 62.4 29.8C62.4 30.2 62.3 30.3 62.3 30.3H61.4C59.6 30.3 57.7 31 57.7 33.4C57.7 35.3 58.9 35.7 59.7 35.7C61.1 35.7 61.8 34.8 61.9 34.8L61.8 35.6H63.7L64.5 29.9C64.5 27.4 62.3 27.3 61.6 27.3ZM62.1 31.9C62.1 32.2 61.9 33.9 60.7 33.9C60.1 33.9 59.9 33.4 59.9 33.1C59.9 32.6 60.2 31.9 61.8 31.9C62 31.9 62 31.9 62.1 31.9Z" fill="white"/>
<path d="M66.1 35.6C66.7 32.2 66.8 29.4 68.3 29.9C68.5 28.6 68.8 28 69 27.5H68.6C67.7 27.5 66.9 28.7 66.9 28.7L67.1 27.6H65.1L63.8 35.6H66.1Z" fill="white"/>
</svg>
