<svg width="90" height="60" viewBox="0 0 90 60" fill="none" xmlns="http://www.w3.org/2000/svg">
<rect width="90" height="60" fill="white"/>
<path d="M74.3925 19H60.1458C60.9757 23.7028 65.5402 28.129 70.5196 28.129H81.8617C82 27.714 82 27.0224 82 26.6075C82 22.4579 78.5421 19 74.3925 19Z" fill="url(#paint0_linear_2614_10)"/>
<path d="M61.3907 28.9589V40.4393H68.3065V34.3533H74.3925C77.7121 34.3533 80.6168 32.0019 81.5851 28.9589H61.3907Z" fill="#4FAD50"/>
<path d="M37.0467 19V40.3009H43.1327C43.1327 40.3009 44.6542 40.3009 45.4841 38.7794C49.6336 30.6187 50.8785 28.129 50.8785 28.129H51.7084V40.3009H58.6243V19H52.5383C52.5383 19 51.0168 19.1383 50.1869 20.5215C46.729 27.5757 44.7925 31.172 44.7925 31.172H43.9626V19H37.0467Z" fill="#4FAD50"/>
<path d="M8 40.4392V19.1383H14.9159C14.9159 19.1383 16.8524 19.1383 17.9589 22.1813C20.7253 30.2037 21.0019 31.3103 21.0019 31.3103C21.0019 31.3103 21.5551 29.3738 24.0449 22.1813C25.1514 19.1383 27.0879 19.1383 27.0879 19.1383H34.0038V40.4392H27.0879V28.9589H26.258L22.3851 40.4392H19.3421L15.4692 28.9589H14.6393V40.4392H8Z" fill="#4FAD50"/>
<defs>
<linearGradient id="paint0_linear_2614_10" x1="60.1212" y1="23.6299" x2="81.951" y2="23.6299" gradientUnits="userSpaceOnUse">
<stop stop-color="#27B1E6"/>
<stop offset="1" stop-color="#148ACA"/>
</linearGradient>
</defs>
</svg>
