<svg width="90" height="60" viewBox="0 0 90 60" fill="none" xmlns="http://www.w3.org/2000/svg">
<rect width="90" height="60" fill="white"/>
<path d="M77.3964 19.3263H72.7192C71.3052 19.3263 70.2175 19.7614 69.5649 21.1754L60.6456 41.5157H66.9543C66.9543 41.5157 68.0421 38.7964 68.2596 38.1438C68.9122 38.1438 75.1122 38.1438 75.9824 38.1438C76.1999 38.9052 76.7438 41.407 76.7438 41.407H82.3999L77.3964 19.3263ZM70 33.5754C70.5438 32.2701 72.3929 27.3754 72.3929 27.3754C72.3929 27.4842 72.9368 26.0701 73.1543 25.3087L73.5894 27.2666C73.5894 27.2666 74.7859 32.5965 75.0035 33.6842H70V33.5754Z" fill="#3362AB"/>
<path d="M61.0806 34.2281C61.0806 38.7965 56.9473 41.8421 50.5298 41.8421C47.8105 41.8421 45.2 41.2982 43.7859 40.6456L44.6561 35.6421L45.4175 35.9684C47.3754 36.8386 48.6807 37.1649 51.0736 37.1649C52.814 37.1649 54.6631 36.5123 54.6631 34.9895C54.6631 34.0105 53.9017 33.3579 51.5087 32.2702C49.2245 31.1825 46.1789 29.4421 46.1789 26.2877C46.1789 21.9368 50.421 19 56.4035 19C58.6877 19 60.6456 19.4351 61.8421 19.9789L60.9719 24.7649L60.5368 24.3298C59.4491 23.8947 58.035 23.4596 55.9684 23.4596C53.6842 23.5684 52.5964 24.5474 52.5964 25.4175C52.5964 26.3965 53.9017 27.1579 55.9684 28.1368C59.4491 29.7684 61.0806 31.6175 61.0806 34.2281Z" fill="#3362AB"/>
<path d="M8 19.5439L8.10877 19.1088H17.4632C18.7684 19.1088 19.7474 19.5439 20.0737 20.9579L22.1403 30.7474C20.0737 25.5263 15.2877 21.2842 8 19.5439Z" fill="#F9B50B"/>
<path d="M35.3018 19.3263L25.8386 41.407H19.4211L13.9825 22.9158C17.8983 25.4176 21.1614 29.3334 22.3579 32.0527L23.0106 34.3369L28.8842 19.2176H35.3018V19.3263Z" fill="#3362AB"/>
<path d="M37.8035 19.2176H43.7859L39.9789 41.407H33.9965L37.8035 19.2176Z" fill="#3362AB"/>
</svg>
